<svg xmlns="http://www.w3.org/2000/svg" viewBox="0 0 517.8 62.63" fill="#fff"><path d="M55.9,52v9.66H51.11c-4.63,0-8.89-1.42-10.88-6.35-3.6,4.36-9.75,7.29-19.88,7.29C8.24,62.63,0,58.09,0,48.53,0,39.25,7.19,34.9,17,34.14l21.29-1.61V31.3c0-5.2-4.44-7.76-11.35-7.76S16.38,26,15.43,30.45H2.37c1.23-10.22,10.22-17,24.61-17,13.53,0,24.42,5.78,24.42,18.65V47.87c0,2.84,1.23,4.16,4,4.16ZM38.33,41.34,20.44,42.66c-4.35.38-7.28,2-7.28,5.21,0,3.59,3.4,4.92,8.61,4.92,7.67,0,16.56-2.46,16.56-9.94Z"></path><path d="M117.08,0V61.69h-10.8l-1.23-5.49h-.75c-2.94,3-8,6.43-17.32,6.43-15.53,0-26.51-9.37-26.51-24.7,0-15.62,11.64-24.52,26.51-24.52,8,0,13.81,2.75,17,5.59V0ZM104,37.93c0-7.95-5.58-13.16-15.14-13.16S73.63,30,73.63,37.93c0,8.14,5.77,13.34,15.24,13.34S104,46.07,104,37.93Z"></path><path d="M126.27,38.31c0-15.15,12.3-24.9,28.87-24.9,13.53,0,25.46,6.06,27.17,18.65H169.15c-1.42-4.26-6.72-7.29-14-7.29-9.47,0-15.71,5.4-15.71,13.54,0,7.95,5.87,13,15.9,13,7,0,12.21-2,14-6.24h13.15c-1.79,11-12.21,17.6-27.16,17.6C137.53,62.63,126.27,52.69,126.27,38.31Z"></path><path d="M244.53,34.71v27H231.37V37.74c0-8.8-5.3-13-13.25-13s-13.91,4.17-13.91,13.44V61.69H191.15V0h13.06V20.32h.85c3.31-3.69,8.24-6.91,16.94-6.91C236,13.41,244.53,21.27,244.53,34.71Z"></path><path d="M255.33,14.36h13.06V61.69H255.33Z"></path><path d="M279.52,48.06l0-48.06h12.11V14.36H306V24.68H291.58v21.1c0,2.84.57,6.54,7.1,6.54a27.94,27.94,0,0,0,5.4-.67v9.94a42.69,42.69,0,0,1-9.37,1C282.59,62.63,279.52,56,279.52,48.06Z"></path><path d="M365.12,46.35c-2,9.85-11.65,16.28-26.13,16.28-17.32,0-28.87-9.56-28.87-24.23,0-15.43,12-25,28-25,13.82,0,26.69,7.2,26.79,24.23a28,28,0,0,1-.29,4H323.18C324,48,329.43,52.32,339,52.32c7,0,11.64-2.09,13.25-6ZM323.47,32.63h28.58c-.75-5.21-5.58-8.9-13.91-8.9C329.53,23.73,324.7,27.61,323.47,32.63Z"></path><path d="M373.43,38.31c0-15.15,12.31-24.9,28.87-24.9,13.54,0,25.46,6.06,27.17,18.65H416.31c-1.42-4.26-6.72-7.29-14-7.29-9.47,0-15.71,5.4-15.71,13.54,0,7.95,5.87,13,15.9,13,7,0,12.21-2,14-6.24h13.16c-1.8,11-12.21,17.6-27.17,17.6C384.69,62.63,373.43,52.69,373.43,38.31Z"></path><path d="M437.86,48.06,438.81,0h12.11V14.36h14.39V24.68H450.92v21.1c0,2.84.57,6.54,7.1,6.54a27.94,27.94,0,0,0,5.4-.67v9.94a42.69,42.69,0,0,1-9.37,1C441.93,62.63,437.86,56,437.86,48.06Z"></path><path d="M470,46.26h12.87c1.14,4.92,5.59,6.81,12.5,6.81,5.77,0,9.56-1.13,9.56-4.64,0-2.84-2.65-4.25-9.09-5.49L487,41.43c-8.33-1.42-15.06-4.83-15.06-13.25,0-9.66,9.38-14.77,21.4-14.77,15.14,0,22.15,6.53,23.38,14.86H503.6c-.85-3.31-3.78-5.3-10.31-5.3-5.3,0-8.52,1.42-8.52,4.45s3.4,3.88,8.61,4.83l9.09,1.51c10.51,1.9,15.33,6.91,15.33,14.48,0,10-9.84,14.39-22.34,14.39C479.28,62.63,470.85,56.57,470,46.26Z"></path><path d="M270,0a8.25,8.25,0,0,1-8,8.1A8.44,8.44,0,0,1,253.71,0Z"></path></svg>